<svg xmlns="http://www.w3.org/2000/svg" viewBox="0 0 48 48" role="img" aria-labelledby="title desc">
  <title>Bloqueador de anuncios</title>
  <desc>AB en escudo cuadrado rojo</desc>
  <defs>
    <linearGradient id="ab-red" x1="0%" y1="0%" x2="100%" y2="100%">
      <stop stop-color="#ff4d4d" offset="0%"/>
      <stop stop-color="#c80f1c" offset="100%"/>
    </linearGradient>
  </defs>
  <rect x="6" y="6" width="36" height="36" rx="9" fill="url(#ab-red)" stroke="#9b0d17" stroke-width="1.4"/>
  <path d="M18.2 31.5 21.6 16h5l3.4 15.5h-3.5l-.4-2.4h-3.5l-.4 2.4h-3.6Zm4.3-5.4h2.7L24 19.3h-.1l-1.4 6.8Zm10 5.4V16h5.2c2.7 0 4.2 1.6 4.2 3.6 0 1.4-.7 2.4-1.9 2.9v.1c1.5.4 2.4 1.5 2.4 3.2 0 2.5-1.9 4.6-5.3 4.6h-4.6Zm3.4-9.1h1.1c1 0 1.5-.6 1.5-1.4s-.5-1.3-1.5-1.3h-1.1v2.7Zm0 6.1h1.2c1.1 0 1.7-.7 1.7-1.6s-.6-1.6-1.7-1.6h-1.2v3.2Z" fill="#ffffff"/>
</svg>
