<svg width="96" height="96" viewBox="0 0 96 96" xmlns="http://www.w3.org/2000/svg" role="img" aria-label="VPN lock icon">
  <defs>
    <linearGradient id="bg" x1="0" y1="0" x2="1" y2="1">
      <stop offset="0%" stop-color="#1f3753"/>
      <stop offset="100%" stop-color="#132538"/>
    </linearGradient>
  </defs>
  <rect x="2" y="2" width="92" height="92" rx="16" fill="#eef3f7"/>
  <rect x="8" y="8" width="80" height="80" rx="12" fill="#ffffff"/>
  <g transform="translate(18 16)">
    <path d="M46 24v-4c0-7.7-6.3-14-14-14s-14 6.3-14 14v4h-6v-4C12 10.8 21 2 32 2s20 8.8 20 18v4z" fill="#1f3753"/>
    <rect x="4" y="26" width="56" height="32" rx="6" fill="url(#bg)"/>
    <g fill="#fff">
      <path d="M12 54h6l3-10 3 10h6l4-16h-5l-2 9.5-3-9.5h-6l-3 9.5-2-9.5h-5z"/>
      <path d="M36 38h8.2c3.5 0 6 2.2 6 5.8 0 3.6-2.5 5.8-6 5.8H41V54h-5zm8.4 8.7c1.1 0 2-.7 2-2 0-1.3-.9-2-2-2H41v4z"/>
      <path d="M55 38h6.2L65 46l3.8-8h6.2l-6.8 12.2V54h-6v-4z"/>
    </g>
  </g>
</svg>
